<svg xmlns="http://www.w3.org/2000/svg" version="1.1" xmlns:xlink="http://www.w3.org/1999/xlink" xmlns:svgjs="http://svgjs.com/svgjs" width="532pt" height="520pt"><svg width="532pt" height="520pt" viewBox="0 0 532 520" version="1.1" xmlns="http://www.w3.org/2000/svg">
<g id="SvgjsG1000">
<path fill="#000000" opacity="1.00" d=" M 186.17 4.17 C 192.45 -0.68 202.88 -0.40 207.70 6.35 C 227.37 38.78 246.15 71.74 265.60 104.30 C 283.92 73.37 301.75 42.15 320.26 11.34 C 322.02 8.49 323.41 5.18 326.36 3.34 C 333.83 -1.98 345.68 1.14 349.38 9.60 C 360.12 28.43 371.32 47.00 382.24 65.74 C 429.59 146.36 476.88 227.02 524.37 307.57 C 527.74 312.82 531.33 318.52 531.22 325.00 C 531.07 330.27 527.19 334.20 523.58 337.55 C 465.52 396.16 406.93 454.25 348.73 512.72 C 344.82 517.63 338.39 520.75 332.08 519.50 C 325.93 518.43 322.36 512.84 318.06 508.91 C 300.17 491.89 283.36 473.78 265.62 456.61 C 245.45 476.43 225.76 496.73 205.43 516.39 C 198.83 522.33 187.93 519.82 182.83 513.10 C 140.58 470.35 97.70 428.22 55.26 385.65 C 38.18 367.84 20.24 350.88 3.22 333.02 C 1.49 331.16 0.63 328.73 0.00 326.32 L 0.00 323.33 C 1.06 314.81 7.01 308.20 10.85 300.84 C 67.38 204.98 123.56 108.92 180.00 13.01 C 181.81 9.92 183.16 6.34 186.17 4.17 M 265.48 164.25 C 234.80 216.67 203.90 268.97 173.22 321.39 C 204.06 352.14 234.81 382.97 265.62 413.75 C 296.44 383.03 327.09 352.13 358.00 321.50 C 346.58 301.56 334.74 281.86 323.16 262.01 C 303.91 229.44 284.91 196.72 265.48 164.25 Z"></path>
</g>
</svg><style>@media (prefers-color-scheme: light) { :root { filter: none; } }
@media (prefers-color-scheme: dark) { :root { filter: none; } }
</style></svg>