<svg xmlns="http://www.w3.org/2000/svg" version="1.1" xmlns:xlink="http://www.w3.org/1999/xlink" xmlns:svgjs="http://svgjs.com/svgjs" width="1000" height="1000"><style>
    #light-icon {
      display: inline;
    }
    #dark-icon {
      display: none;
    }

    @media (prefers-color-scheme: dark) {
      #light-icon {
        display: none;
      }
      #dark-icon {
        display: inline;
      }
    }
  </style><g id="light-icon"><svg xmlns="http://www.w3.org/2000/svg" version="1.1" xmlns:xlink="http://www.w3.org/1999/xlink" xmlns:svgjs="http://svgjs.com/svgjs" width="1000" height="1000"><rect width="1000" height="1000" rx="200" ry="200" fill="#f7f7f7"></rect><g transform="matrix(1,0,0,1,0,0)"><svg xmlns="http://www.w3.org/2000/svg" version="1.1" xmlns:xlink="http://www.w3.org/1999/xlink" xmlns:svgjs="http://svgjs.com/svgjs" width="200pt" height="200pt"><svg width="200pt" height="200pt" viewBox="0 0 200 200" version="1.1" xmlns="http://www.w3.org/2000/svg">
<g id="#000000ff">
<path fill="#000000" opacity="1.00" d=" M 80.25 40.30 C 81.14 37.84 84.88 37.42 86.00 39.91 C 90.74 47.75 95.29 55.71 99.98 63.58 C 104.66 55.70 109.19 47.74 113.92 39.90 C 115.06 37.39 118.83 37.80 119.73 40.30 C 133.44 63.59 147.09 86.93 160.83 110.22 C 161.91 112.36 164.61 115.09 162.32 117.36 C 148.08 131.76 133.70 146.03 119.39 160.36 C 118.18 161.93 115.72 162.33 114.38 160.70 C 109.50 156.00 104.81 151.11 99.98 146.37 C 95.15 151.10 90.46 155.98 85.59 160.67 C 84.24 162.35 81.73 161.92 80.52 160.31 C 66.26 146.02 51.92 131.80 37.72 117.45 C 35.30 115.17 38.08 112.36 39.18 110.17 C 52.91 86.91 66.54 63.58 80.25 40.30 M 83.30 47.47 C 70.11 69.88 56.93 92.30 43.77 114.72 C 56.94 127.90 70.11 141.09 83.29 154.25 C 87.39 150.17 91.47 146.06 95.55 141.95 C 87.48 133.83 79.32 125.78 71.27 117.63 C 69.75 116.42 69.91 114.36 70.99 112.93 C 79.45 98.52 87.92 84.12 96.39 69.72 C 92.03 62.30 87.67 54.88 83.30 47.47 M 103.60 69.77 C 111.34 82.94 119.07 96.12 126.83 109.28 C 127.91 111.17 129.21 112.96 129.87 115.05 C 129.92 116.61 128.64 117.63 127.70 118.68 C 119.90 126.41 112.16 134.19 104.40 141.95 C 108.49 146.06 112.58 150.17 116.69 154.26 C 129.87 141.10 143.04 127.94 156.21 114.77 C 143.05 92.34 129.87 69.92 116.69 47.50 C 112.31 54.91 107.95 62.34 103.60 69.77 M 77.16 114.72 C 84.76 122.33 92.36 129.95 99.98 137.55 C 107.61 129.95 115.22 122.33 122.82 114.72 C 115.21 101.78 107.61 88.84 99.98 75.91 C 92.36 88.83 84.77 101.78 77.16 114.72 Z"></path>
</g>
</svg></svg></g></svg></g><g id="dark-icon"><svg xmlns="http://www.w3.org/2000/svg" version="1.1" xmlns:xlink="http://www.w3.org/1999/xlink" xmlns:svgjs="http://svgjs.com/svgjs" width="1000" height="1000"><rect width="1000" height="1000" rx="200" ry="200" fill="#0f0f0f"></rect><g transform="matrix(5.535347145342401,0,0,5.535347145342401,150.01406452595984,158.09317802795255)"><svg xmlns="http://www.w3.org/2000/svg" version="1.1" xmlns:xlink="http://www.w3.org/1999/xlink" xmlns:svgjs="http://svgjs.com/svgjs" width="126.46" height="123.54"><svg id="Layer_1" data-name="Layer 1" xmlns="http://www.w3.org/2000/svg" viewBox="0 0 126.46 123.54">
  <defs>
    <style>
      .cls-1 {
        fill: #fff;
      }
    </style>
  </defs>
  <g id="_000000ff" data-name="#000000ff">
    <path class="cls-1" d="m43.49,2.09c.89-2.46,4.63-2.88,5.75-.39,4.74,7.84,9.29,15.8,13.98,23.67,4.68-7.88,9.21-15.84,13.94-23.68,1.14-2.51,4.91-2.1,5.81.4,13.71,23.29,27.36,46.63,41.1,69.92,1.08,2.14,3.78,4.87,1.49,7.14-14.24,14.4-28.62,28.67-42.93,43-1.21,1.57-3.67,1.97-5.01.34-4.88-4.7-9.57-9.59-14.4-14.33-4.83,4.73-9.52,9.61-14.39,14.3-1.35,1.68-3.86,1.25-5.07-.36-14.26-14.29-28.6-28.51-42.8-42.86-2.42-2.28.36-5.09,1.46-7.28C16.15,48.7,29.78,25.37,43.49,2.09m3.05,7.17C33.35,31.67,20.17,54.09,7.01,76.51c13.17,13.18,26.34,26.37,39.52,39.53,4.1-4.08,8.18-8.19,12.26-12.3-8.07-8.12-16.23-16.17-24.28-24.32-1.52-1.21-1.36-3.27-.28-4.7,8.46-14.41,16.93-28.81,25.4-43.21-4.36-7.42-8.72-14.84-13.09-22.25m20.3,22.3c7.74,13.17,15.47,26.35,23.23,39.51,1.08,1.89,2.38,3.68,3.04,5.77.05,1.56-1.23,2.58-2.17,3.63-7.8,7.73-15.54,15.51-23.3,23.27,4.09,4.11,8.18,8.22,12.29,12.31,13.18-13.16,26.35-26.32,39.52-39.49-13.16-22.43-26.34-44.85-39.52-67.27-4.38,7.41-8.74,14.84-13.09,22.27m-26.44,44.95c7.6,7.61,15.2,15.23,22.82,22.83,7.63-7.6,15.24-15.22,22.84-22.83-7.61-12.94-15.21-25.88-22.84-38.81-7.62,12.92-15.21,25.87-22.82,38.81Z"></path>
  </g>
</svg></svg></g></svg></g></svg>