<svg xmlns="http://www.w3.org/2000/svg" version="1.1" xmlns:xlink="http://www.w3.org/1999/xlink" xmlns:svgjs="http://svgjs.com/svgjs" width="1000" height="1000"><style>
    #light-icon {
      display: inline;
    }
    #dark-icon {
      display: none;
    }

    @media (prefers-color-scheme: dark) {
      #light-icon {
        display: none;
      }
      #dark-icon {
        display: inline;
      }
    }
  </style><g id="light-icon"><svg xmlns="http://www.w3.org/2000/svg" version="1.1" xmlns:xlink="http://www.w3.org/1999/xlink" xmlns:svgjs="http://svgjs.com/svgjs" width="1000" height="1000"><rect width="1000" height="1000" rx="200" ry="200" fill="#fdfdfd"></rect><g transform="matrix(5.535347145342401,0,0,5.535347145342401,149.9803897974533,158.08279962259587)"><svg xmlns="http://www.w3.org/2000/svg" version="1.1" xmlns:xlink="http://www.w3.org/1999/xlink" xmlns:svgjs="http://svgjs.com/svgjs" width="126.46" height="123.53"><svg id="Layer_1" data-name="Layer 1" xmlns="http://www.w3.org/2000/svg" viewBox="0 0 126.46 123.53">
  <path d="m43.43,2.14c.86-2.52,4.7-2.94,5.81-.4,4.71,7.81,9.23,15.75,13.95,23.57,4.7-7.78,9.16-15.69,13.84-23.48,1.08-2.63,5.02-2.32,5.93.29,14.27,24.31,28.58,48.61,42.83,72.94,1.21,1.47.68,3.49-.71,4.61-14.17,14.17-28.34,28.35-42.52,42.51-1.2,1.59-3.7,1.91-5.01.28-4.85-4.7-9.54-9.56-14.36-14.3-4.83,4.74-9.54,9.62-14.41,14.32-1.32,1.64-3.85,1.26-5.02-.36-14.14-14.11-28.26-28.25-42.39-42.37-3.19-2.46.03-5.88,1.38-8.39C16.33,48.3,29.86,25.21,43.43,2.14Zm3.09,7.12C33.32,31.66,20.14,54.08,6.99,76.52c13.15,13.18,26.33,26.32,39.47,39.51,4.16-4.04,8.21-8.19,12.3-12.29-8.05-8.1-16.17-16.13-24.21-24.24-1.22-1.03-1.71-2.85-.67-4.18,8.52-14.63,17.15-29.2,25.71-43.8-4.34-7.43-8.72-14.84-13.07-22.26Zm20.29,22.31c8.47,14.41,16.95,28.83,25.42,43.24,1.08,1.4,1.1,3.45-.34,4.62-8.06,8.14-16.22,16.19-24.28,24.32,4.16,4.06,8.09,8.35,12.41,12.23,13.08-13.19,26.28-26.26,39.39-39.42-13.14-22.44-26.35-44.84-39.5-67.27-4.39,7.41-8.76,14.84-13.1,22.28Zm-26.44,44.94c7.6,7.61,15.2,15.24,22.83,22.83,7.62-7.6,15.22-15.22,22.83-22.83-7.61-12.93-15.19-25.87-22.83-38.78-7.66,12.9-15.22,25.85-22.83,38.78Z"></path>
</svg></svg></g></svg></g><g id="dark-icon"><svg xmlns="http://www.w3.org/2000/svg" version="1.1" xmlns:xlink="http://www.w3.org/1999/xlink" xmlns:svgjs="http://svgjs.com/svgjs" width="1000" height="1000"><rect width="1000" height="1000" rx="200" ry="200" fill="#0a0a0a"></rect><g transform="matrix(5.535347145342401,0,0,5.535347145342401,149.9803897974533,158.08279962259587)"><svg xmlns="http://www.w3.org/2000/svg" version="1.1" xmlns:xlink="http://www.w3.org/1999/xlink" xmlns:svgjs="http://svgjs.com/svgjs" width="126.46" height="123.53"><svg id="Layer_1" data-name="Layer 1" xmlns="http://www.w3.org/2000/svg" viewBox="0 0 126.46 123.53">
  <defs>
    <style>
      .cls-1 {
        fill: #fff;
      }
    </style>
  </defs>
  <path class="cls-1" d="m43.43,2.14c.86-2.52,4.7-2.94,5.81-.4,4.71,7.81,9.23,15.75,13.95,23.57,4.7-7.78,9.16-15.69,13.84-23.48,1.08-2.63,5.02-2.32,5.93.29,14.27,24.31,28.58,48.61,42.83,72.94,1.21,1.47.68,3.49-.71,4.61-14.17,14.17-28.34,28.35-42.52,42.51-1.2,1.59-3.7,1.91-5.01.28-4.85-4.7-9.54-9.56-14.36-14.3-4.83,4.74-9.54,9.62-14.41,14.32-1.32,1.64-3.85,1.26-5.02-.36-14.14-14.11-28.26-28.25-42.39-42.37-3.19-2.46.03-5.88,1.38-8.39C16.33,48.3,29.86,25.21,43.43,2.14Zm3.09,7.12C33.32,31.66,20.14,54.08,6.99,76.52c13.15,13.18,26.33,26.32,39.47,39.51,4.16-4.04,8.21-8.19,12.3-12.29-8.05-8.1-16.17-16.13-24.21-24.24-1.22-1.03-1.71-2.85-.67-4.18,8.52-14.63,17.15-29.2,25.71-43.8-4.34-7.43-8.72-14.84-13.07-22.26Zm20.29,22.31c8.47,14.41,16.95,28.83,25.42,43.24,1.08,1.4,1.1,3.45-.34,4.62-8.06,8.14-16.22,16.19-24.28,24.32,4.16,4.06,8.09,8.35,12.41,12.23,13.08-13.19,26.28-26.26,39.39-39.42-13.14-22.44-26.35-44.84-39.5-67.27-4.39,7.41-8.76,14.84-13.1,22.28Zm-26.44,44.94c7.6,7.61,15.2,15.24,22.83,22.83,7.62-7.6,15.22-15.22,22.83-22.83-7.61-12.93-15.19-25.87-22.83-38.78-7.66,12.9-15.22,25.85-22.83,38.78Z"></path>
</svg></svg></g></svg></g></svg>