<?xml version="1.0" standalone="no"?>
<!DOCTYPE svg PUBLIC "-//W3C//DTD SVG 20010904//EN"
 "http://www.w3.org/TR/2001/REC-SVG-20010904/DTD/svg10.dtd">
<svg version="1.0" xmlns="http://www.w3.org/2000/svg"
 width="709.000000pt" height="709.000000pt" viewBox="0 0 709.000000 709.000000"
 preserveAspectRatio="xMidYMid meet">
<metadata>
Created by potrace 1.14, written by Peter Selinger 2001-2017
</metadata>
<g transform="translate(0.000000,709.000000) scale(0.100000,-0.100000)"
fill="#000000" stroke="none">
<path d="M2548 6992 c-10 -2 -18 -8 -18 -13 0 -6 -4 -8 -9 -5 -11 7 -93 -63
-85 -75 3 -5 0 -9 -5 -9 -6 0 -11 -4 -11 -10 0 -5 -40 -76 -88 -157 -48 -81
-91 -155 -95 -163 -4 -8 -15 -28 -26 -45 -41 -67 -137 -231 -144 -245 -4 -8
-16 -28 -27 -45 -11 -16 -23 -37 -27 -45 -4 -8 -28 -49 -53 -90 -25 -41 -49
-82 -53 -90 -4 -8 -18 -33 -31 -55 -14 -22 -42 -69 -62 -105 -21 -36 -69 -117
-107 -180 -38 -63 -69 -119 -70 -125 -1 -5 -5 -12 -8 -15 -6 -5 -79 -128 -267
-450 -53 -91 -99 -167 -102 -170 -3 -3 -11 -16 -17 -30 -7 -14 -53 -92 -102
-175 -49 -82 -102 -172 -116 -200 -15 -27 -33 -57 -41 -66 -8 -8 -14 -21 -14
-27 0 -6 -6 -17 -13 -24 -7 -7 -23 -34 -37 -60 -14 -27 -28 -48 -32 -48 -5 0
-8 -5 -8 -11 0 -10 -22 -50 -101 -179 -15 -25 -36 -61 -47 -80 -17 -30 -87
-149 -169 -288 -13 -20 -26 -44 -30 -52 -5 -8 -32 -55 -60 -103 -29 -48 -53
-92 -53 -96 0 -5 -4 -11 -8 -13 -4 -1 -25 -32 -45 -68 -20 -36 -48 -83 -61
-105 -13 -22 -56 -96 -97 -165 -40 -69 -77 -126 -81 -128 -4 -2 -8 -10 -8 -17
0 -8 -12 -31 -26 -52 -64 -93 -88 -155 -89 -224 0 -58 4 -70 30 -105 16 -21
575 -585 1242 -1252 854 -853 1224 -1218 1251 -1229 49 -21 88 -24 142 -10 41
10 82 47 453 416 225 223 413 406 418 406 10 0 72 -60 341 -332 338 -340 475
-472 504 -484 51 -19 97 -20 148 -2 47 16 154 121 1279 1248 697 696 1236
1244 1246 1265 38 75 16 168 -72 304 -27 43 -74 122 -81 136 -8 17 -23 43
-128 219 -43 72 -78 135 -78 140 0 5 -4 11 -8 13 -4 2 -21 26 -37 53 -34 60
-86 150 -100 173 -6 9 -30 51 -54 92 -24 41 -51 86 -59 100 -9 14 -17 27 -17
30 0 3 -8 16 -17 30 -37 55 -238 402 -238 410 0 5 -4 10 -8 12 -5 2 -22 26
-38 55 -67 119 -111 195 -181 310 -40 67 -73 127 -73 133 0 5 -4 10 -10 10 -5
0 -10 6 -10 14 0 7 -7 19 -15 26 -8 7 -12 16 -9 21 3 5 0 9 -5 9 -6 0 -11 6
-11 14 0 8 -3 16 -7 18 -5 2 -15 17 -24 33 -9 17 -47 82 -84 145 -37 63 -76
129 -85 145 -10 17 -77 131 -149 254 -72 123 -131 227 -131 232 0 5 -4 9 -8 9
-5 0 -16 16 -25 35 -9 19 -29 54 -44 77 -15 24 -28 45 -28 48 0 3 -16 30 -35
60 -19 30 -40 66 -47 80 -7 14 -23 42 -36 62 -65 110 -121 205 -137 232 -57
101 -213 363 -221 371 -5 5 -9 17 -9 27 0 10 -5 18 -10 18 -6 0 -13 8 -17 18
-16 46 -89 156 -117 176 -43 32 -63 39 -124 42 -60 3 -105 -13 -142 -48 -23
-22 -34 -39 -64 -93 -6 -11 -13 -22 -16 -25 -3 -3 -12 -19 -21 -35 -9 -17 -74
-127 -144 -245 -70 -118 -139 -235 -153 -260 -14 -25 -58 -101 -99 -168 -40
-68 -73 -126 -73 -128 0 -3 -16 -30 -35 -60 -19 -30 -35 -56 -35 -58 0 -3 -22
-41 -50 -85 -27 -44 -50 -83 -50 -86 0 -15 -55 -86 -58 -75 -3 7 -49 87 -103
178 -55 90 -99 168 -99 173 0 5 -3 9 -8 9 -4 0 -15 17 -25 38 -9 20 -38 70
-62 110 -25 41 -45 78 -45 83 0 5 -4 9 -8 9 -5 0 -14 16 -22 35 -8 19 -17 35
-22 35 -4 0 -8 4 -8 10 0 5 -25 50 -55 100 -30 50 -55 95 -55 100 0 6 -4 10
-10 10 -5 0 -10 5 -10 10 0 6 -12 29 -27 53 -15 23 -28 44 -28 47 -1 6 -50 86
-76 122 -10 15 -19 30 -19 34 0 14 -89 150 -112 170 -37 33 -121 49 -190 36z
m1036 -2249 c26 -43 51 -85 57 -93 5 -8 12 -23 15 -32 4 -10 10 -18 15 -18 5
0 9 -4 9 -9 0 -13 73 -135 82 -139 5 -2 8 -9 8 -15 0 -7 18 -40 40 -75 22 -34
40 -64 40 -66 0 -2 18 -34 41 -71 22 -37 49 -82 59 -99 9 -17 54 -94 100 -171
46 -77 91 -153 100 -170 9 -16 44 -75 77 -130 32 -55 70 -120 84 -145 13 -25
27 -47 30 -50 3 -3 16 -25 29 -50 14 -25 30 -52 36 -60 6 -8 23 -35 36 -60 42
-75 157 -271 199 -337 21 -34 39 -65 39 -67 0 -3 21 -40 46 -83 l45 -77 -616
-615 -615 -615 -616 615 -615 616 20 34 c11 19 30 52 42 74 12 22 44 75 70
118 27 43 49 81 49 83 0 3 16 30 35 60 19 30 35 58 35 63 0 5 7 14 15 21 8 7
13 16 10 20 -3 5 -2 10 3 12 10 4 92 144 92 156 0 6 3 12 8 14 4 2 36 53 71
113 35 61 71 121 80 135 29 46 51 85 73 128 12 23 26 42 30 42 4 0 8 5 8 11 0
6 22 48 49 93 69 115 99 166 118 204 9 17 20 32 25 32 4 0 8 5 8 11 0 5 29 60
65 120 36 60 65 114 65 119 0 6 4 10 8 10 4 0 18 19 30 43 12 23 37 67 55 98
105 181 162 278 164 279 1 0 22 -35 47 -77z"/>
</g>
</svg>
