<?xml version="1.0" standalone="no"?>
<!DOCTYPE svg PUBLIC "-//W3C//DTD SVG 20010904//EN"
 "http://www.w3.org/TR/2001/REC-SVG-20010904/DTD/svg10.dtd">
<svg version="1.0" xmlns="http://www.w3.org/2000/svg"
 width="700.000000pt" height="700.000000pt" viewBox="0 0 700.000000 700.000000"
 preserveAspectRatio="xMidYMid meet">
<metadata>
Created by potrace 1.14, written by Peter Selinger 2001-2017
</metadata>
<g transform="translate(0.000000,700.000000) scale(0.100000,-0.100000)"
fill="#000000" stroke="none">
<path d="M2859 5645 c-19 -10 -135 -200 -407 -662 -209 -356 -556 -947 -771
-1313 -359 -610 -391 -668 -391 -709 l0 -45 773 -774 c424 -425 784 -780 799
-788 48 -25 84 -18 136 28 26 23 149 143 275 267 l227 226 258 -257 c141 -141
267 -261 279 -267 30 -15 69 -14 101 3 24 13 1193 1179 1470 1467 115 120 122
138 79 220 -13 24 -359 616 -770 1314 -530 901 -755 1275 -774 1287 -40 25
-96 23 -127 -4 -19 -18 -494 -812 -510 -853 -2 -5 -6 -8 -8 -5 -3 3 -102 169
-220 370 -289 491 -284 482 -310 497 -30 16 -77 16 -109 -2z m289 -700 c116
-198 213 -367 217 -375 3 -10 -171 -316 -450 -790 -418 -712 -455 -778 -455
-819 l0 -45 442 -443 443 -443 -215 -215 -215 -215 -692 693 -692 692 615
1045 c338 575 649 1103 690 1174 62 105 78 126 88 115 7 -8 108 -176 224 -374z
m1633 -793 l687 -1167 -692 -692 -691 -693 -215 215 -215 215 421 422 c232
233 431 436 442 452 29 37 28 75 -2 135 -14 27 -219 378 -456 781 -266 452
-429 739 -425 748 5 14 109 192 347 595 55 93 103 166 106 162 4 -4 316 -532
693 -1173z m-876 -498 l394 -669 -399 -400 -400 -400 -400 400 -400 400 398
676 c218 372 401 673 405 669 5 -4 186 -308 402 -676z"/>
</g>
</svg>
